<?xml version="1.0" standalone="no"?>
<!DOCTYPE svg PUBLIC "-//W3C//DTD SVG 20010904//EN"
 "http://www.w3.org/TR/2001/REC-SVG-20010904/DTD/svg10.dtd">
<svg version="1.0" xmlns="http://www.w3.org/2000/svg"
 width="948.000000pt" height="948.000000pt" viewBox="0 0 948.000000 948.000000"
 preserveAspectRatio="xMidYMid meet">

<g transform="translate(0.000000,948.000000) scale(0.100000,-0.100000)"
fill="#000000" stroke="none">
<path d="M388 4863 c-8 -435 32 -812 128 -1194 314 -1253 1166 -2300 2331
-2864 1186 -575 2600 -575 3786 0 193 93 330 172 522 300 803 535 1400 1311
1709 2224 167 490 237 962 228 1534 l-2 97 -1116 0 -1116 0 60 -64 c87 -93
115 -158 120 -276 2 -52 -8 -286 -22 -520 -14 -234 -31 -506 -36 -605 -6 -99
-13 -195 -16 -212 l-5 -33 -534 0 -533 0 -6 93 c-4 50 -15 247 -26 437 -22
380 -54 778 -71 896 -11 69 -16 82 -59 133 -26 31 -72 77 -102 104 l-56 47
-182 0 -182 0 60 -64 c87 -93 115 -158 120 -276 2 -52 -8 -286 -22 -520 -14
-234 -31 -506 -36 -605 -6 -99 -13 -195 -16 -212 l-5 -33 -534 0 -533 0 -6 93
c-4 50 -15 247 -26 437 -22 380 -54 778 -71 896 -11 69 -16 82 -59 133 -26 31
-72 77 -102 104 l-56 47 -177 0 -177 0 60 -64 c87 -93 115 -158 120 -276 2
-52 -8 -286 -22 -520 -14 -234 -31 -506 -36 -605 -6 -99 -13 -195 -16 -212
l-5 -33 -534 0 -533 0 -6 93 c-4 50 -15 247 -26 437 -22 380 -54 778 -71 896
-11 69 -16 82 -59 133 -26 31 -72 77 -102 104 l-56 47 -946 0 -946 0 -2 -97z
m3380 -3035 l2 -628 -630 0 -630 0 0 630 0 630 628 -2 627 -3 3 -627z m1640 0
l2 -628 -630 0 -630 0 0 630 0 630 628 -2 627 -3 3 -627z m1650 0 l2 -628
-630 0 -630 0 0 630 0 630 628 -2 627 -3 3 -627z"/>
</g>
</svg>
